<?xml version="1.0" encoding="UTF-8" standalone="no"?>
<!DOCTYPE svg PUBLIC "-//W3C//DTD SVG 1.1//EN"
 "http://www.w3.org/Graphics/SVG/1.1/DTD/svg11.dtd">
<!-- Generated by graphviz version 9.0.0 (20230911.1827)
 -->
<!-- Pages: 1 -->
<svg width="176pt" height="248pt"
 viewBox="0.00 0.00 176.25 247.68" xmlns="http://www.w3.org/2000/svg" xmlns:xlink="http://www.w3.org/1999/xlink">
<g id="graph0" class="graph" transform="scale(1 1) rotate(0) translate(4 243.68)">
<polygon fill="white" stroke="none" points="-4,4 -4,-243.68 172.25,-243.68 172.25,4 -4,4"/>
<!-- &#45;1 -->
<g id="node1" class="node">
<title>&#45;1</title>
<polygon fill="lightgray" stroke="black" points="68.25,-239.68 44.75,-239.68 44.75,-220.43 68.25,-220.43 68.25,-239.68"/>
<text text-anchor="middle" x="56.5" y="-227.13" font-family="Times New Roman,serif" font-size="9.00">&#45;1</text>
</g>
<!-- 0 -->
<g id="node5" class="node">
<title>0</title>
<ellipse fill="lightblue" stroke="black" cx="14.5" cy="-163.57" rx="14.5" ry="14.5"/>
<text text-anchor="middle" x="14.5" y="-160.65" font-family="Times New Roman,serif" font-size="9.00">0</text>
</g>
<!-- &#45;1&#45;&gt;0 -->
<g id="edge4" class="edge">
<title>&#45;1&#45;&gt;0</title>
<path fill="none" stroke="red" stroke-width="0.27" d="M50.66,-220.09C44.69,-210.93 35.24,-196.42 27.49,-184.52"/>
<polygon fill="red" stroke="red" stroke-width="0.27" points="30.6,-182.89 22.21,-176.42 24.74,-186.71 30.6,-182.89"/>
</g>
<!-- 1 -->
<g id="node6" class="node">
<title>1</title>
<ellipse fill="lightblue" stroke="black" cx="105.5" cy="-14.5" rx="14.5" ry="14.5"/>
<text text-anchor="middle" x="105.5" y="-11.57" font-family="Times New Roman,serif" font-size="9.00">1</text>
</g>
<!-- &#45;1&#45;&gt;1 -->
<g id="edge3" class="edge">
<title>&#45;1&#45;&gt;1</title>
<path fill="none" stroke="green" stroke-width="0.12" d="M56.22,-220.23C55.7,-195.16 56.07,-121.68 75.5,-64.99 79.12,-54.41 85.27,-43.67 91.06,-34.91"/>
<polygon fill="green" stroke="green" stroke-width="0.12" points="93.9,-36.95 96.74,-26.74 88.16,-32.95 93.9,-36.95"/>
</g>
<!-- 814 -->
<g id="node8" class="node">
<title>814</title>
<ellipse fill="white" stroke="black" cx="105.5" cy="-163.57" rx="20.86" ry="20.86"/>
<text text-anchor="middle" x="105.5" y="-160.65" font-family="Times New Roman,serif" font-size="9.00">814</text>
</g>
<!-- &#45;1&#45;&gt;814 -->
<g id="edge5" class="edge">
<title>&#45;1&#45;&gt;814</title>
<path fill="none" stroke="green" stroke-width="0.23" d="M63.31,-220.09C69.43,-212.04 78.7,-199.84 86.99,-188.92"/>
<polygon fill="green" stroke="green" stroke-width="0.23" points="89.6,-191.27 92.87,-181.19 84.03,-187.04 89.6,-191.27"/>
</g>
<!-- &#45;2 -->
<g id="node2" class="node">
<title>&#45;2</title>
<polygon fill="lightgray" stroke="black" points="110.25,-239.68 86.75,-239.68 86.75,-220.43 110.25,-220.43 110.25,-239.68"/>
<text text-anchor="middle" x="98.5" y="-227.13" font-family="Times New Roman,serif" font-size="9.00">&#45;2</text>
</g>
<!-- &#45;3 -->
<g id="node3" class="node">
<title>&#45;3</title>
<polygon fill="lightgray" stroke="black" points="168.25,-95.48 144.75,-95.48 144.75,-76.23 168.25,-76.23 168.25,-95.48"/>
<text text-anchor="middle" x="156.5" y="-82.93" font-family="Times New Roman,serif" font-size="9.00">&#45;3</text>
</g>
<!-- &#45;3&#45;&gt;1 -->
<g id="edge2" class="edge">
<title>&#45;3&#45;&gt;1</title>
<path fill="none" stroke="red" stroke-width="0.21" d="M149.83,-75.78C142.21,-65.42 129.52,-48.17 119.67,-34.77"/>
<polygon fill="red" stroke="red" stroke-width="0.21" points="122.61,-32.87 113.87,-26.88 116.97,-37.01 122.61,-32.87"/>
</g>
<!-- &#45;4 -->
<g id="node4" class="node">
<title>&#45;4</title>
<polygon fill="lightgray" stroke="black" points="152.25,-239.68 128.75,-239.68 128.75,-220.43 152.25,-220.43 152.25,-239.68"/>
<text text-anchor="middle" x="140.5" y="-227.13" font-family="Times New Roman,serif" font-size="9.00">&#45;4</text>
</g>
<!-- 112 -->
<g id="node7" class="node">
<title>112</title>
<ellipse fill="white" stroke="black" cx="105.5" cy="-85.85" rx="20.86" ry="20.86"/>
<text text-anchor="middle" x="105.5" y="-82.93" font-family="Times New Roman,serif" font-size="9.00">112</text>
</g>
<!-- 112&#45;&gt;1 -->
<g id="edge1" class="edge">
<title>112&#45;&gt;1</title>
<path fill="none" stroke="green" stroke-width="0.45" d="M105.5,-64.79C105.5,-56.98 105.5,-47.96 105.5,-39.78"/>
<polygon fill="green" stroke="green" stroke-width="0.45" points="109,-40.03 105.5,-30.03 102,-40.03 109,-40.03"/>
</g>
<!-- 814&#45;&gt;112 -->
<g id="edge6" class="edge">
<title>814&#45;&gt;112</title>
<path fill="none" stroke="red" stroke-width="0.29" d="M105.5,-142.28C105.5,-134.64 105.5,-125.78 105.5,-117.41"/>
<polygon fill="red" stroke="red" stroke-width="0.29" points="109,-117.63 105.5,-107.63 102,-117.63 109,-117.63"/>
</g>
</g>
</svg>
