<?xml version="1.0" encoding="UTF-8" standalone="no"?>
<!DOCTYPE svg PUBLIC "-//W3C//DTD SVG 1.1//EN"
 "http://www.w3.org/Graphics/SVG/1.1/DTD/svg11.dtd">
<!-- Generated by graphviz version 9.0.0 (20230911.1827)
 -->
<!-- Pages: 1 -->
<svg width="234pt" height="170pt"
 viewBox="0.00 0.00 233.61 169.96" xmlns="http://www.w3.org/2000/svg" xmlns:xlink="http://www.w3.org/1999/xlink">
<g id="graph0" class="graph" transform="scale(1 1) rotate(0) translate(4 165.96)">
<polygon fill="white" stroke="none" points="-4,4 -4,-165.96 229.61,-165.96 229.61,4 -4,4"/>
<!-- &#45;1 -->
<g id="node1" class="node">
<title>&#45;1</title>
<polygon fill="lightgray" stroke="black" points="136.61,-161.96 113.11,-161.96 113.11,-142.71 136.61,-142.71 136.61,-161.96"/>
<text text-anchor="middle" x="124.86" y="-149.41" font-family="Times New Roman,serif" font-size="9.00">&#45;1</text>
</g>
<!-- 27 -->
<g id="node8" class="node">
<title>27</title>
<ellipse fill="white" stroke="black" cx="77.86" cy="-85.85" rx="17.68" ry="17.68"/>
<text text-anchor="middle" x="77.86" y="-82.93" font-family="Times New Roman,serif" font-size="9.00">27</text>
</g>
<!-- &#45;1&#45;&gt;27 -->
<g id="edge4" class="edge">
<title>&#45;1&#45;&gt;27</title>
<path fill="none" stroke="red" stroke-width="0.12" d="M118.32,-142.37C111.99,-133.68 102.14,-120.16 93.74,-108.64"/>
<polygon fill="red" stroke="red" stroke-width="0.12" points="96.78,-106.87 88.06,-100.85 91.12,-110.99 96.78,-106.87"/>
</g>
<!-- 28 -->
<g id="node9" class="node">
<title>28</title>
<ellipse fill="white" stroke="black" cx="130.86" cy="-85.85" rx="17.68" ry="17.68"/>
<text text-anchor="middle" x="130.86" y="-82.93" font-family="Times New Roman,serif" font-size="9.00">28</text>
</g>
<!-- &#45;1&#45;&gt;28 -->
<g id="edge5" class="edge">
<title>&#45;1&#45;&gt;28</title>
<path fill="none" stroke="red" stroke-width="0.37" d="M125.69,-142.37C126.37,-135.05 127.37,-124.3 128.31,-114.21"/>
<polygon fill="red" stroke="red" stroke-width="0.37" points="131.8,-114.54 129.24,-104.26 124.83,-113.9 131.8,-114.54"/>
</g>
<!-- &#45;2 -->
<g id="node2" class="node">
<title>&#45;2</title>
<polygon fill="lightgray" stroke="black" points="225.61,-161.96 202.11,-161.96 202.11,-142.71 225.61,-142.71 225.61,-161.96"/>
<text text-anchor="middle" x="213.86" y="-149.41" font-family="Times New Roman,serif" font-size="9.00">&#45;2</text>
</g>
<!-- &#45;3 -->
<g id="node3" class="node">
<title>&#45;3</title>
<polygon fill="lightgray" stroke="black" points="89.61,-161.96 66.11,-161.96 66.11,-142.71 89.61,-142.71 89.61,-161.96"/>
<text text-anchor="middle" x="77.86" y="-149.41" font-family="Times New Roman,serif" font-size="9.00">&#45;3</text>
</g>
<!-- 368 -->
<g id="node7" class="node">
<title>368</title>
<ellipse fill="white" stroke="black" cx="20.86" cy="-85.85" rx="20.86" ry="20.86"/>
<text text-anchor="middle" x="20.86" y="-82.93" font-family="Times New Roman,serif" font-size="9.00">368</text>
</g>
<!-- &#45;3&#45;&gt;368 -->
<g id="edge9" class="edge">
<title>&#45;3&#45;&gt;368</title>
<path fill="none" stroke="red" stroke-width="0.14" d="M69.93,-142.37C62.48,-133.93 51,-120.95 41.02,-109.65"/>
<polygon fill="red" stroke="red" stroke-width="0.14" points="43.8,-107.52 34.56,-102.35 38.56,-112.16 43.8,-107.52"/>
</g>
<!-- &#45;3&#45;&gt;27 -->
<g id="edge2" class="edge">
<title>&#45;3&#45;&gt;27</title>
<path fill="none" stroke="green" stroke-width="0.17" d="M77.86,-142.37C77.86,-135.02 77.86,-124.23 77.86,-114.1"/>
<polygon fill="green" stroke="green" stroke-width="0.17" points="81.36,-114.23 77.86,-104.23 74.36,-114.23 81.36,-114.23"/>
</g>
<!-- &#45;3&#45;&gt;28 -->
<g id="edge8" class="edge">
<title>&#45;3&#45;&gt;28</title>
<path fill="none" stroke="red" stroke-width="0.21" d="M85.23,-142.37C92.53,-133.48 103.99,-119.55 113.59,-107.86"/>
<polygon fill="red" stroke="red" stroke-width="0.21" points="116.03,-110.41 119.67,-100.46 110.62,-105.97 116.03,-110.41"/>
</g>
<!-- &#45;4 -->
<g id="node4" class="node">
<title>&#45;4</title>
<polygon fill="lightgray" stroke="black" points="183.61,-161.96 160.11,-161.96 160.11,-142.71 183.61,-142.71 183.61,-161.96"/>
<text text-anchor="middle" x="171.86" y="-149.41" font-family="Times New Roman,serif" font-size="9.00">&#45;4</text>
</g>
<!-- 1 -->
<g id="node6" class="node">
<title>1</title>
<ellipse fill="lightblue" stroke="black" cx="130.86" cy="-14.5" rx="14.5" ry="14.5"/>
<text text-anchor="middle" x="130.86" y="-11.57" font-family="Times New Roman,serif" font-size="9.00">1</text>
</g>
<!-- &#45;4&#45;&gt;1 -->
<g id="edge1" class="edge">
<title>&#45;4&#45;&gt;1</title>
<path fill="none" stroke="green" stroke-width="0.17" d="M171.4,-142.27C170.36,-126.27 167.16,-92.14 157.86,-64.99 154.41,-54.93 149.02,-44.49 143.97,-35.8"/>
<polygon fill="green" stroke="green" stroke-width="0.17" points="147.04,-34.12 138.85,-27.4 141.06,-37.76 147.04,-34.12"/>
</g>
<!-- &#45;4&#45;&gt;28 -->
<g id="edge3" class="edge">
<title>&#45;4&#45;&gt;28</title>
<path fill="none" stroke="green" stroke-width="0.36" d="M166.16,-142.37C160.81,-133.96 152.59,-121.02 145.42,-109.75"/>
<polygon fill="green" stroke="green" stroke-width="0.36" points="148.59,-108.21 140.27,-101.65 142.68,-111.96 148.59,-108.21"/>
</g>
<!-- 0 -->
<g id="node5" class="node">
<title>0</title>
<ellipse fill="lightblue" stroke="black" cx="77.86" cy="-14.5" rx="14.5" ry="14.5"/>
<text text-anchor="middle" x="77.86" y="-11.57" font-family="Times New Roman,serif" font-size="9.00">0</text>
</g>
<!-- 368&#45;&gt;1 -->
<g id="edge10" class="edge">
<title>368&#45;&gt;1</title>
<path fill="none" stroke="red" stroke-width="0.18" d="M37.93,-73.42C42.14,-70.64 46.65,-67.69 50.86,-64.99 70.75,-52.26 93.7,-38.12 109.9,-28.22"/>
<polygon fill="red" stroke="red" stroke-width="0.18" points="111.64,-31.26 118.35,-23.07 107.99,-25.28 111.64,-31.26"/>
</g>
<!-- 27&#45;&gt;0 -->
<g id="edge7" class="edge">
<title>27&#45;&gt;0</title>
<path fill="none" stroke="green" stroke-width="0.11" d="M77.86,-67.71C77.86,-59.08 77.86,-48.49 77.86,-39.1"/>
<polygon fill="green" stroke="green" stroke-width="0.11" points="81.36,-39.35 77.86,-29.35 74.36,-39.35 81.36,-39.35"/>
</g>
<!-- 28&#45;&gt;1 -->
<g id="edge6" class="edge">
<title>28&#45;&gt;1</title>
<path fill="none" stroke="red" stroke-width="0.18" d="M130.86,-67.71C130.86,-59.17 130.86,-48.72 130.86,-39.41"/>
<polygon fill="red" stroke="red" stroke-width="0.18" points="134.36,-39.47 130.86,-29.47 127.36,-39.47 134.36,-39.47"/>
</g>
</g>
</svg>
